<?xml version="1.0" encoding="UTF-8" standalone="no"?><svg xmlns="http://www.w3.org/2000/svg" xmlns:xlink="http://www.w3.org/1999/xlink" contentScriptType="application/ecmascript" contentStyleType="text/css" height="292px" preserveAspectRatio="none" style="width:680px;height:292px;" version="1.1" viewBox="0 0 680 292" width="680px" zoomAndPan="magnify"><defs><filter height="300%" id="fp3moxh762101" width="300%" x="-1" y="-1"><feGaussianBlur result="blurOut" stdDeviation="2.0"/><feColorMatrix in="blurOut" result="blurOut2" type="matrix" values="0 0 0 0 0 0 0 0 0 0 0 0 0 0 0 0 0 0 .4 0"/><feOffset dx="4.0" dy="4.0" in="blurOut2" result="blurOut3"/><feBlend in="SourceGraphic" in2="blurOut3" mode="normal"/></filter></defs><g><!--MD5=[9c46470aa33a0c75e6d1dfdefc2f9c22]
class Reservation--><rect codeLine="1" fill="#FEFECE" filter="url(#fp3moxh762101)" height="124.8281" id="Reservation" style="stroke:#A80036;stroke-width:1.5;" width="214" x="7" y="7"/><ellipse cx="72.75" cy="23" fill="#ADD1B2" rx="11" ry="11" style="stroke:#A80036;stroke-width:1.0;"/><path d="M75.7188,28.6406 Q75.1406,28.9375 74.5,29.0781 Q73.8594,29.2344 73.1563,29.2344 Q70.6563,29.2344 69.3281,27.5938 Q68.0156,25.9375 68.0156,22.8125 Q68.0156,19.6875 69.3281,18.0313 Q70.6563,16.375 73.1563,16.375 Q73.8594,16.375 74.5,16.5313 Q75.1563,16.6875 75.7188,16.9844 L75.7188,19.7031 Q75.0938,19.125 74.5,18.8594 Q73.9063,18.5781 73.2813,18.5781 Q71.9375,18.5781 71.25,19.6563 Q70.5625,20.7188 70.5625,22.8125 Q70.5625,24.9063 71.25,25.9844 Q71.9375,27.0469 73.2813,27.0469 Q73.9063,27.0469 74.5,26.7813 Q75.0938,26.5 75.7188,25.9219 L75.7188,28.6406 Z " fill="#000000"/><text fill="#000000" font-family="sans-serif" font-size="12" lengthAdjust="spacingAndGlyphs" textLength="74" x="93.25" y="27.1543">Reservation</text><line style="stroke:#A80036;stroke-width:1.5;" x1="8" x2="220" y1="39" y2="39"/><rect fill="none" height="6" style="stroke:#C82930;stroke-width:1.0;" width="6" x="15" y="47"/><text fill="#000000" font-family="sans-serif" font-size="11" lengthAdjust="spacingAndGlyphs" textLength="56" x="27" y="53.2104">id : String</text><rect fill="none" height="6" style="stroke:#C82930;stroke-width:1.0;" width="6" x="15" y="59.8047"/><text fill="#000000" font-family="sans-serif" font-size="11" lengthAdjust="spacingAndGlyphs" textLength="73" x="27" y="66.0151">code : String</text><rect fill="none" height="6" style="stroke:#C82930;stroke-width:1.0;" width="6" x="15" y="72.6094"/><text fill="#000000" font-family="sans-serif" font-size="11" lengthAdjust="spacingAndGlyphs" textLength="186" x="27" y="78.8198">reservationDate : LocalDateTime</text><rect fill="none" height="6" style="stroke:#C82930;stroke-width:1.0;" width="6" x="15" y="85.4141"/><text fill="#000000" font-family="sans-serif" font-size="11" lengthAdjust="spacingAndGlyphs" textLength="157" x="27" y="91.6245">arrivalDate : LocalDateTime</text><rect fill="none" height="6" style="stroke:#C82930;stroke-width:1.0;" width="6" x="15" y="98.2188"/><text fill="#000000" font-family="sans-serif" font-size="11" lengthAdjust="spacingAndGlyphs" textLength="177" x="27" y="104.4292">departureDate : LocalDateTime</text><rect fill="none" height="6" style="stroke:#C82930;stroke-width:1.0;" width="6" x="15" y="111.0234"/><text fill="#000000" font-family="sans-serif" font-size="11" lengthAdjust="spacingAndGlyphs" textLength="188" x="27" y="117.2339">cancellationDate : LocalDateTime</text><line style="stroke:#A80036;stroke-width:1.5;" x1="8" x2="220" y1="123.8281" y2="123.8281"/><!--MD5=[3fd616f346a44cd59a91eb10b19e157c]
class User--><rect codeLine="10" fill="#FEFECE" filter="url(#fp3moxh762101)" height="86.4141" id="User" style="stroke:#A80036;stroke-width:1.5;" width="122" x="53" y="192"/><ellipse cx="95.45" cy="208" fill="#ADD1B2" rx="11" ry="11" style="stroke:#A80036;stroke-width:1.0;"/><path d="M98.4188,213.6406 Q97.8406,213.9375 97.2,214.0781 Q96.5594,214.2344 95.8563,214.2344 Q93.3563,214.2344 92.0281,212.5938 Q90.7156,210.9375 90.7156,207.8125 Q90.7156,204.6875 92.0281,203.0313 Q93.3563,201.375 95.8563,201.375 Q96.5594,201.375 97.2,201.5313 Q97.8563,201.6875 98.4188,201.9844 L98.4188,204.7031 Q97.7938,204.125 97.2,203.8594 Q96.6063,203.5781 95.9813,203.5781 Q94.6375,203.5781 93.95,204.6563 Q93.2625,205.7188 93.2625,207.8125 Q93.2625,209.9063 93.95,210.9844 Q94.6375,212.0469 95.9813,212.0469 Q96.6063,212.0469 97.2,211.7813 Q97.7938,211.5 98.4188,210.9219 L98.4188,213.6406 Z " fill="#000000"/><text fill="#000000" font-family="sans-serif" font-size="12" lengthAdjust="spacingAndGlyphs" textLength="29" x="115.55" y="212.1543">User</text><line style="stroke:#A80036;stroke-width:1.5;" x1="54" x2="174" y1="224" y2="224"/><rect fill="none" height="6" style="stroke:#C82930;stroke-width:1.0;" width="6" x="61" y="232"/><text fill="#000000" font-family="sans-serif" font-size="11" lengthAdjust="spacingAndGlyphs" textLength="56" x="73" y="238.2104">id : String</text><rect fill="none" height="6" style="stroke:#C82930;stroke-width:1.0;" width="6" x="61" y="244.8047"/><text fill="#000000" font-family="sans-serif" font-size="11" lengthAdjust="spacingAndGlyphs" textLength="77" x="73" y="251.0151">email : String</text><rect fill="none" height="6" style="stroke:#C82930;stroke-width:1.0;" width="6" x="61" y="257.6094"/><text fill="#000000" font-family="sans-serif" font-size="11" lengthAdjust="spacingAndGlyphs" textLength="96" x="73" y="263.8198">fullName : String</text><line style="stroke:#A80036;stroke-width:1.5;" x1="54" x2="174" y1="270.4141" y2="270.4141"/><!--MD5=[a2bedcaf4f392d73d1154d063fc5a352]
class ReservationCalendar--><rect codeLine="16" fill="#FEFECE" filter="url(#fp3moxh762101)" height="86.4141" id="ReservationCalendar" style="stroke:#A80036;stroke-width:1.5;" width="168" x="256" y="26.5"/><ellipse cx="273.7" cy="42.5" fill="#ADD1B2" rx="11" ry="11" style="stroke:#A80036;stroke-width:1.0;"/><path d="M276.6688,48.1406 Q276.0906,48.4375 275.45,48.5781 Q274.8094,48.7344 274.1063,48.7344 Q271.6063,48.7344 270.2781,47.0938 Q268.9656,45.4375 268.9656,42.3125 Q268.9656,39.1875 270.2781,37.5313 Q271.6063,35.875 274.1063,35.875 Q274.8094,35.875 275.45,36.0313 Q276.1063,36.1875 276.6688,36.4844 L276.6688,39.2031 Q276.0438,38.625 275.45,38.3594 Q274.8563,38.0781 274.2313,38.0781 Q272.8875,38.0781 272.2,39.1563 Q271.5125,40.2188 271.5125,42.3125 Q271.5125,44.4063 272.2,45.4844 Q272.8875,46.5469 274.2313,46.5469 Q274.8563,46.5469 275.45,46.2813 Q276.0438,46 276.6688,45.4219 L276.6688,48.1406 Z " fill="#000000"/><text fill="#000000" font-family="sans-serif" font-size="12" lengthAdjust="spacingAndGlyphs" textLength="130" x="288.3" y="46.6543">ReservationCalendar</text><line style="stroke:#A80036;stroke-width:1.5;" x1="257" x2="423" y1="58.5" y2="58.5"/><rect fill="none" height="6" style="stroke:#C82930;stroke-width:1.0;" width="6" x="264" y="66.5"/><text fill="#000000" font-family="sans-serif" font-size="11" lengthAdjust="spacingAndGlyphs" textLength="56" x="276" y="72.7104">id : String</text><rect fill="none" height="6" style="stroke:#C82930;stroke-width:1.0;" width="6" x="264" y="79.3047"/><text fill="#000000" font-family="sans-serif" font-size="11" lengthAdjust="spacingAndGlyphs" textLength="142" x="276" y="85.5151">calendarDate : LocalDate</text><rect fill="none" height="6" style="stroke:#C82930;stroke-width:1.0;" width="6" x="264" y="92.1094"/><text fill="#000000" font-family="sans-serif" font-size="11" lengthAdjust="spacingAndGlyphs" textLength="140" x="276" y="98.3198">reservationCode : String</text><line style="stroke:#A80036;stroke-width:1.5;" x1="257" x2="423" y1="104.9141" y2="104.9141"/><!--MD5=[fdec914f9af27b09ea0d83ddec5f1376]
class ResourceLock--><rect codeLine="22" fill="#FEFECE" filter="url(#fp3moxh762101)" height="86.4141" id="ResourceLock" style="stroke:#A80036;stroke-width:1.5;" width="207" x="459.5" y="26.5"/><ellipse cx="515.25" cy="42.5" fill="#ADD1B2" rx="11" ry="11" style="stroke:#A80036;stroke-width:1.0;"/><path d="M518.2188,48.1406 Q517.6406,48.4375 517,48.5781 Q516.3594,48.7344 515.6563,48.7344 Q513.1563,48.7344 511.8281,47.0938 Q510.5156,45.4375 510.5156,42.3125 Q510.5156,39.1875 511.8281,37.5313 Q513.1563,35.875 515.6563,35.875 Q516.3594,35.875 517,36.0313 Q517.6563,36.1875 518.2188,36.4844 L518.2188,39.2031 Q517.5938,38.625 517,38.3594 Q516.4063,38.0781 515.7813,38.0781 Q514.4375,38.0781 513.75,39.1563 Q513.0625,40.2188 513.0625,42.3125 Q513.0625,44.4063 513.75,45.4844 Q514.4375,46.5469 515.7813,46.5469 Q516.4063,46.5469 517,46.2813 Q517.5938,46 518.2188,45.4219 L518.2188,48.1406 Z " fill="#000000"/><text fill="#000000" font-family="sans-serif" font-size="12" lengthAdjust="spacingAndGlyphs" textLength="87" x="535.75" y="46.6543">ResourceLock</text><line style="stroke:#A80036;stroke-width:1.5;" x1="460.5" x2="665.5" y1="58.5" y2="58.5"/><rect fill="none" height="6" style="stroke:#C82930;stroke-width:1.0;" width="6" x="467.5" y="66.5"/><text fill="#000000" font-family="sans-serif" font-size="11" lengthAdjust="spacingAndGlyphs" textLength="56" x="479.5" y="72.7104">id : String</text><rect fill="none" height="6" style="stroke:#C82930;stroke-width:1.0;" width="6" x="467.5" y="79.3047"/><text fill="#000000" font-family="sans-serif" font-size="11" lengthAdjust="spacingAndGlyphs" textLength="106" x="479.5" y="85.5151">isLocked : boolean</text><rect fill="none" height="6" style="stroke:#C82930;stroke-width:1.0;" width="6" x="467.5" y="92.1094"/><text fill="#000000" font-family="sans-serif" font-size="11" lengthAdjust="spacingAndGlyphs" textLength="181" x="479.5" y="98.3198">lockTimestamp : LocalDateTime</text><line style="stroke:#A80036;stroke-width:1.5;" x1="460.5" x2="665.5" y1="104.9141" y2="104.9141"/><!--MD5=[2764c5f7e1d7a00b6843c353e51f5e52]
link Reservation to User--><path codeLine="28" d="M114,132.0685 C114,152.0234 114,173.6459 114,191.8983 " fill="none" id="Reservation-User" style="stroke:#A80036;stroke-width:1.0;"/><text fill="#000000" font-family="sans-serif" font-size="13" lengthAdjust="spacingAndGlyphs" textLength="7" x="106.6172" y="151.8158">*</text><text fill="#000000" font-family="sans-serif" font-size="13" lengthAdjust="spacingAndGlyphs" textLength="8" x="105.3625" y="180.8781">1</text><!--MD5=[61a9702aa1077dbe62d744de3f415668]
@startuml
class Reservation {
  -id : String
  -code : String
  -reservationDate : LocalDateTime
  -arrivalDate : LocalDateTime
  -departureDate : LocalDateTime
  -cancellationDate : LocalDateTime
}

class User {
  -id : String
  -email : String
  -fullName : String
}

class ReservationCalendar {
  -id : String
  -calendarDate : LocalDate
  -reservationCode : String
}

class ResourceLock {
  -id : String
  -isLocked : boolean
  -lockTimestamp : LocalDateTime
}

Reservation "*" - - "1" User
@enduml

PlantUML version 1.2020.22(Sun Dec 06 09:36:27 UTC 2020)
(GPL source distribution)
Java Runtime: OpenJDK Runtime Environment
JVM: OpenJDK 64-Bit Server VM
Default Encoding: UTF-8
Language: en
Country: US
--></g></svg>